# xmcd CD database file
#
# Track frame offsets:
#	150
#	35218
#	108355
#	158934
#	183562
#	208483
#	219701
#	257813
#
# Disc length: 3964 seconds
#
# Revision: 0
# Processed by: cddbd v1.5.1PL0 Copyright (c) Steve Scherf et al.
# Submitted via: CDex 1.51
#
DISCID=800f7a08
DTITLE=The European Jazz Youth Orchestra 2004 - Brazilian Concerts
DYEAR=2004
DGENRE=Jazz
TTITLE0=Viva O Mundo
TTITLE1=Santa Cruz
TTITLE2=But I Am Not
TTITLE3=End of a Dream
TTITLE4=Why Not
TTITLE5=Invenção
TTITLE6=Not Again
TTITLE7=E Alegre Fez Triste
EXTD=YEAR: 2004
EXTT0=
EXTT1=
EXTT2=
EXTT3=
EXTT4=
EXTT5=
EXTT6=
EXTT7=
PLAYORDER=
